<svg width="48" height="48" viewBox="0 0 48 48" fill="none" xmlns="http://www.w3.org/2000/svg">
<path d="M29.7188 3H18.2812C16.6312 3 16.0312 4.35 16.0312 6H31.9688C31.9688 4.35 31.3687 3 29.7188 3ZM18.3844 13.8281C19.0969 14.6531 19.5 15.7031 19.5 16.8V41.7281C19.5 43.7812 21.1781 45 23.2406 45H24.7688C26.8219 45 28.5094 43.7906 28.5094 41.7281V16.8C28.5094 15.7031 28.9125 14.6625 29.625 13.8281C31.0688 12.15 31.9688 10.5938 31.9688 7.5H16.0312C16.0312 10.7812 16.9313 12.15 18.3844 13.8281ZM21.375 22.3406C21.375 20.8781 22.5563 19.6875 24 19.6875C25.4438 19.6875 26.625 20.8781 26.625 22.3406V25.6594C26.625 27.1219 25.4438 28.3125 24 28.3125C22.5563 28.3125 21.375 27.1219 21.375 25.6594V22.3406Z" fill="url(#paint0_radial_4_1040)"/>
<path d="M22.125 25.5938C22.125 26.091 22.3225 26.5679 22.6742 26.9196C23.0258 27.2712 23.5027 27.4688 24 27.4688C24.4973 27.4688 24.9742 27.2712 25.3258 26.9196C25.6775 26.5679 25.875 26.091 25.875 25.5938C25.875 25.0965 25.6775 24.6196 25.3258 24.2679C24.9742 23.9163 24.4973 23.7188 24 23.7188C23.5027 23.7188 23.0258 23.9163 22.6742 24.2679C22.3225 24.6196 22.125 25.0965 22.125 25.5938Z" fill="white"/>
<defs>
<radialGradient id="paint0_radial_4_1040" cx="0" cy="0" r="1" gradientUnits="userSpaceOnUse" gradientTransform="translate(-17.5 27) rotate(31.6075) scale(68.6895 46.9698)">
<stop stop-color="#8AECFF"/>
<stop offset="0.4375" stop-color="#FFD840"/>
<stop offset="1" stop-color="#F3ACFF"/>
</radialGradient>
</defs>
</svg>
